HIERARCHY
ROOT root
{
	OFFSET	0	13.1	24.9
	CHANNELS 6  Xposition Yposition Zposition Xrotation Yrotation Zrotation
	JOINT spine_1
	{
		OFFSET	0	9.99999	0
		CHANNELS 3  Xrotation Yrotation Zrotation
		JOINT spine_2
		{
			OFFSET	0	112	-10
			CHANNELS 3  Xrotation Yrotation Zrotation
			JOINT spine_3
			{
				OFFSET	0	206.5	19.3
				CHANNELS 3  Xrotation Yrotation Zrotation
				JOINT spine_4
				{
					OFFSET	0	110.4	14.6
					CHANNELS 3  Xrotation Yrotation Zrotation
					JOINT neck_1
					{
						OFFSET	0	71.8	-50.3
						CHANNELS 3  Xrotation Yrotation Zrotation
						JOINT neck_2
						{
							OFFSET	0	86.2	-25.8
							CHANNELS 3  Xrotation Yrotation Zrotation
							JOINT head_ee
							{
								OFFSET	0	179.8	-8.7
								CHANNELS 3  Xrotation Yrotation Zrotation
								End Site
								{
									OFFSET	1	0	0
								}
							}
						}
					}
					JOINT left_clavicle
					{
						OFFSET	-43.2	22.4	-70.8
						CHANNELS 3  Xrotation Yrotation Zrotation
						JOINT left_shoulder
						{
							OFFSET	-93.9	-5.79999	48.7
							CHANNELS 3  Xrotation Yrotation Zrotation
							JOINT left_elbow
							{
								OFFSET	-291.4	-30.8	15.2
								CHANNELS 3  Xrotation Yrotation Zrotation
								JOINT left_lowarm_twist
								{
									OFFSET	-110.7	-3.89999	13.6
									CHANNELS 3  Xrotation Yrotation Zrotation
									JOINT left_hand
									{
										OFFSET	-110.7	-3.89999	13.6
										CHANNELS 3  Xrotation Yrotation Zrotation
										JOINT left_ee
										{
											OFFSET	-80.8	-5.10001	12.1
											CHANNELS 3  Xrotation Yrotation Zrotation
											End Site
											{
												OFFSET	1	0	0
											}
										}
									}
								}
							}
						}
					}
					JOINT right_clavicle
					{
						OFFSET	43.2	22.4	-70.8
						CHANNELS 3  Xrotation Yrotation Zrotation
						JOINT right_shoulder
						{
							OFFSET	93.9	-5.79999	48.7
							CHANNELS 3  Xrotation Yrotation Zrotation
							JOINT right_elbow
							{
								OFFSET	291.4	-30.8	15.2
								CHANNELS 3  Xrotation Yrotation Zrotation
								JOINT right_lowarm_twist
								{
									OFFSET	110.7	-3.89999	13.6
									CHANNELS 3  Xrotation Yrotation Zrotation
									JOINT right_hand
									{
										OFFSET	110.7	-3.89999	13.6
										CHANNELS 3  Xrotation Yrotation Zrotation
										JOINT right_ee
										{
											OFFSET	80.8	-5.10001	12.1
											CHANNELS 3  Xrotation Yrotation Zrotation
											End Site
											{
												OFFSET	1	0	0
											}
										}
									}
								}
							}
						}
					}
				}
			}
		}
	}
	JOINT left_hip
	{
		OFFSET	-82.8	-127.5	0.300001
		CHANNELS 3  Xrotation Yrotation Zrotation
		JOINT left_knee
		{
			OFFSET	-28.2	-396.7	2.2
			CHANNELS 3  Xrotation Yrotation Zrotation
			JOINT left_ankle
			{
				OFFSET	-11.7	-411.3	35.4
				CHANNELS 3  Xrotation Yrotation Zrotation
				JOINT left_toes
				{
					OFFSET	0	-60	-88.6
					CHANNELS 3  Xrotation Yrotation Zrotation
					JOINT left_foot_ee
					{
						OFFSET	-22.5	-16.5	-42.2
						CHANNELS 3  Xrotation Yrotation Zrotation
						End Site
						{
							OFFSET	1	0	0
						}
					}
				}
			}
		}
	}
	JOINT right_hip
	{
		OFFSET	82.8	-127.5	0.300001
		CHANNELS 3  Xrotation Yrotation Zrotation
		JOINT right_knee
		{
			OFFSET	28.2	-396.7	2.2
			CHANNELS 3  Xrotation Yrotation Zrotation
			JOINT right_ankle
			{
				OFFSET	11.7	-411.3	35.4
				CHANNELS 3  Xrotation Yrotation Zrotation
				JOINT right_toes
				{
					OFFSET	0	-60	-88.6
					CHANNELS 3  Xrotation Yrotation Zrotation
					JOINT right_foot_ee
					{
						OFFSET	22.5	-16.5	-42.2
						CHANNELS 3  Xrotation Yrotation Zrotation
						End Site
						{
							OFFSET	1	0	0
						}
					}
				}
			}
		}
	}
}
MOTION
Frames: 16
Frame Time: 0.02
3574.42 741.953 -1474.73 -178.359615382 83.3115706754 176.306114569 -0.664864 0.497973 1.39894 -0.663867 0.407955 1.42779 -0.65273 0.0819346 1.48265 -0.65566 0.315039 1.45112 -24.659 20.2483 11.6482 -26.8576 34.1192 21.7229 -0.0 0.0 -0.0 2.66813 17.3669 6.14933 -22.1832 -12.5858 69.5854 0.383926 -10.7684 0.0361851 -36.9012 -2.62779 3.82933 0.207487 9.73799 5.372 -0.0 0.0 -0.0 13.9895 27.6014 -27.7706 -7.47086 9.59369 -63.3689 1.37018 34.1647 -0.421078 85.3204 4.46493 8.8808 -3.93356 -28.9999 9.87123 0.0 0.0 0.0 9.39419 45.8799 -15.2021 -22.6185 0.255355 3.4391 15.9035 -13.6958 -2.36988 -9.23224 0.0 0.0 -0.0 0.0 -0.0 9.73087 0.282172 2.69838 -13.9498 -0.318641 -2.11179 19.6857 30.2887 3.38656 -7.33654 0.0 0.0 0.0 0.0 0.0 
3575.2828896 740.113 -1472.08728898 -176.49166697 85.8462806307 174.85630872 -0.532098 0.483653 1.37943 -0.531126 0.394905 1.4074 -0.520529 0.0770832 1.45971 -0.523372 0.306627 1.42923 -23.1935 20.8299 11.0093 -25.3955 35.2692 20.9223 -0.0 0.0 -0.0 2.80184 18.2248 6.38924 -22.3278 -12.6019 68.287 0.41353 -11.5771 0.0419217 -36.7913 -2.61656 3.82081 0.0858088 8.48902 4.08321 -0.0 0.0 -0.0 13.9698 27.4361 -27.7471 -7.35265 8.37331 -63.3691 1.3771 34.2989 -0.42497 85.5654 4.49434 8.89187 -4.90915 -29.3503 15.0185 0.0 0.0 0.0 8.06976 44.5609 -14.2606 -21.9143 0.267985 3.33178 15.9834 -14.1394 -2.38809 -10.4287 0.0 0.0 -0.0 0.0 -0.0 10.3589 0.505698 2.9086 -13.7314 -0.317639 -2.0783 21.7859 31.2916 3.75158 -7.27312 0.0 0.0 0.0 0.0 0.0 
3573.89014476 739.836 -1472.43527705 175.241406642 87.2293533651 -177.167716662 -0.576845 0.424817 1.36909 -0.575865 0.336846 1.39334 -0.56681 0.0223368 1.4333 -0.569591 0.248397 1.41179 -23.4152 20.5993 11.8936 -25.4476 34.4848 21.6107 -0.0 0.0 -0.0 2.86573 19.5504 6.53243 -23.1387 -13.7739 65.9642 0.492988 -13.7239 0.0593263 -36.9701 -2.63485 3.83467 -0.0198324 7.31066 2.91608 -0.0 0.0 -0.0 13.9699 27.1526 -27.7852 -7.26251 6.85202 -63.3442 1.36767 34.116 -0.419671 85.5219 4.48913 8.88991 -5.84747 -29.6898 20.082 0.0 0.0 0.0 5.79582 44.2437 -12.957 -21.0435 0.281776 3.19888 15.9901 -15.7168 -2.41618 -11.2439 0.0 0.0 -0.0 0.0 -0.0 11.505 0.647968 2.97897 -13.3707 -0.315704 -2.02298 22.7233 31.7404 3.91435 -7.23456 0.0 0.0 0.0 0.0 0.0 
3570.72703308 733.8 -1471.10419039 -174.282752958 89.592096693 172.406740696 -0.645175 0.337046 1.33979 -0.644211 0.251117 1.35852 -0.637462 -0.0553683 1.38042 -0.640084 0.163317 1.37184 -23.6912 20.3914 12.6845 -25.5854 33.8003 22.2605 -0.0 0.0 -0.0 3.18803 21.2985 7.05248 -23.7846 -15.6201 63.6733 0.613095 -16.8941 0.0910496 -36.884 -2.62604 3.828 -0.21839 6.45573 1.26778 -0.0 0.0 -0.0 13.9325 26.7651 -27.7487 -7.71794 6.45614 -63.6623 1.3555 33.8785 -0.412863 85.3067 4.46328 8.88018 -6.67988 -29.6205 25.067 0.0 0.0 0.0 4.19938 43.725 -11.816 -19.3937 0.302359 2.94658 15.9776 -16.4202 -2.42733 -11.853 0.0 0.0 -0.0 0.0 -0.0 12.3362 0.690673 2.39185 -13.4175 -0.315975 -2.03017 24.0411 32.6914 4.16167 -7.17245 0.0 0.0 0.0 0.0 0.0 
3566.28762317 732.691 -1468.49578416 -4.90066423141 86.9817431127 3.15584275703 -0.753355 0.426972 1.41169 -0.75231 0.336287 1.43599 -0.742913 0.00788203 1.47481 -0.745867 0.240677 1.45507 -24.8278 20.2093 14.3103 -26.6155 33.0068 24.0059 -0.0 0.0 -0.0 3.36884 21.1584 7.31162 -23.0981 -15.6348 62.973 0.684301 -18.7258 0.112831 -36.6402 -2.60114 3.80906 -0.360655 6.25677 0.255566 -0.0 0.0 -0.0 13.8269 26.5515 -27.5294 -7.97815 6.10808 -63.2138 1.33828 33.5404 -0.403307 85.1253 4.44153 8.87189 -7.01993 -29.6556 27.1219 0.0 0.0 0.0 3.67043 43.4908 -11.2264 -18.0201 0.31395 2.73614 17.0774 -15.1577 -2.55654 -12.061 0.0 0.0 -0.0 0.0 -0.0 12.183 0.651604 2.62049 -13.1246 -0.314185 -1.98526 24.2323 32.7029 4.1902 -7.08824 0.0 0.0 0.0 0.0 0.0 
3563.31618099 739.085 -1466.69958261 -0.293045277629 82.7977967517 -1.86960930933 -0.895967 0.377376 1.44323 -0.894854 0.284785 1.46431 -0.886557 -0.0523911 1.49082 -0.889612 0.183687 1.48039 -24.774 20.3662 14.2334 -26.6155 33.3285 24.0222 -0.0 0.0 -0.0 3.47955 20.9928 7.47008 -22.9135 -15.4824 62.3157 0.724748 -19.7491 0.126159 -36.3642 -2.57305 3.78749 -0.444305 6.2346 -0.3 -0.0 0.0 -0.0 13.5501 26.3105 -26.9148 -8.44879 5.57214 -62.5661 1.31158 33.011 -0.388661 84.3668 4.35086 8.83652 -7.22301 -29.7186 28.3304 0.0 0.0 0.0 2.81931 43.7594 -10.2156 -17.4875 0.317085 2.65449 18.6322 -13.9078 -2.74391 -12.3162 0.0 0.0 -0.0 0.0 -0.0 11.852 0.562495 2.74457 -12.7165 -0.311307 -1.92271 24.5034 32.7178 4.23042 -6.97459 0.0 0.0 0.0 0.0 0.0 
3559.90757149 743.813 -1465.2221917 -1.74899862372 78.7154266939 -0.668979235926 -0.862663 0.397417 1.39603 -0.861631 0.307788 1.41849 -0.853045 -0.0187995 1.45137 -0.855923 0.210629 1.43613 -24.6958 20.5894 14.0964 -26.6192 33.7968 24.022 -0.0 0.0 -0.0 3.68947 21.0125 7.77602 -22.7482 -15.3588 61.9722 0.78348 -21.2118 0.14671 -36.0053 -2.53669 3.75924 -0.556524 6.19673 -1.049 -0.0 0.0 -0.0 13.4713 26.2875 -26.7346 -8.40076 5.1247 -61.8409 1.28678 32.5133 -0.375237 83.3563 4.23081 8.78753 -7.48258 -29.7956 29.9034 0.0 0.0 0.0 1.62266 44.118 -8.86128 -16.7394 0.320208 2.53975 20.8573 -12.1851 -3.00335 -12.6653 0.0 0.0 -0.0 0.0 -0.0 11.2181 0.42849 3.0918 -12.1835 -0.306878 -1.84105 24.8861 32.7332 4.28651 -6.81293 0.0 0.0 0.0 0.0 0.0 
3561.19674296 735.811 -1461.23262347 -2.29061152701 73.265560595 -0.0505576573663 -0.890032 0.484567 1.28449 -0.889204 0.401856 1.31272 -0.8791 0.0960359 1.36947 -0.881582 0.311094 1.33713 -24.6249 20.8947 13.8947 -26.6722 34.451 24.0281 -0.0 0.0 -0.0 3.73906 21.0149 7.8483 -22.5714 -15.1309 61.3404 0.868944 -23.2892 0.179077 -35.4892 -2.48472 3.71823 -0.71516 6.17551 -2.09457 -0.0 0.0 -0.0 13.3694 26.3283 -26.493 -8.37356 4.62194 -61.1003 1.25174 31.8006 -0.356586 81.9332 4.06322 8.71496 -7.83701 -29.8712 32.1346 0.0 0.0 0.0 1.80898 44.5055 -8.31783 -15.7509 0.322036 2.38809 23.9337 -9.71131 -3.34272 -13.1607 0.0 0.0 -0.0 0.0 -0.0 9.48571 0.305012 4.31652 -11.4377 -0.299407 -1.72686 25.4244 32.7432 4.36408 -6.57035 0.0 0.0 0.0 0.0 0.0 
3560.59964196 739.381 -1463.17372449 -1.72865532867 69.4542399885 -0.308256236183 -0.73652 0.427696 1.08468 -0.735937 0.357812 1.1097 -0.728388 0.10187 1.16149 -0.730159 0.284016 1.13083 -24.5889 21.1267 13.6155 -26.7579 35.0021 23.9385 -0.0 0.0 -0.0 3.86694 21.0207 8.03479 -21.7107 -15.004 60.3898 0.996985 -26.2832 0.232774 -35.3867 -2.47443 3.71003 -0.93402 6.13639 -3.54301 -0.0 0.0 -0.0 13.4304 26.357 -26.631 -8.23396 3.94721 -60.384 1.20334 30.7981 -0.331446 80.9857 3.95267 8.66435 -8.17793 -30.0824 34.186 0.0 0.0 0.0 1.04849 45.1167 -7.04273 -14.6477 0.320987 2.21883 28.2604 -7.55917 -3.80993 -13.8637 0.0 0.0 -0.0 0.0 -0.0 9.44848 0.549949 4.22752 -10.3667 -0.286078 -1.56307 26.2089 32.7592 4.47578 -6.52815 0.0 0.0 0.0 0.0 0.0 
3556.16034401 739.833 -1466.50913246 -0.956712914199 64.8766488978 -0.545248293436 -0.666768 0.373732 0.933908 -0.666337 0.31355 0.955794 -0.660657 0.0941455 1.00149 -0.661968 0.251123 0.974059 -24.6703 21.203 13.5416 -26.8968 35.1934 23.9685 -0.0 0.0 -0.0 3.93788 21.4268 8.13812 -21.2203 -14.5734 59.6793 1.08058 -28.1589 0.271019 -35.482 -2.48399 3.71766 -1.12296 6.22472 -4.74115 -0.0 0.0 -0.0 13.5283 26.4071 -26.8522 -8.01945 2.98564 -59.6425 1.05922 27.6857 -0.261017 80.2113 3.86293 8.62164 -8.18315 -29.727 34.6377 0.0 0.0 0.0 0.487969 45.1961 -5.5612 -13.0665 0.313802 1.97635 30.0611 -7.56268 -4.00783 -14.1695 0.0 0.0 -0.0 0.0 -0.0 9.3344 0.898853 4.13426 -10.6265 -0.289593 -1.60278 26.1949 32.6681 4.46805 -6.47414 0.0 0.0 0.0 0.0 0.0 
3551.04568267 740.624 -1467.36502278 -0.719763328821 59.0793059335 -1.22949948574 -0.648722 0.297452 0.943042 -0.648259 0.236844 0.960056 -0.643867 0.0186781 0.98866 -0.645189 0.174577 0.973305 -24.8055 21.1087 13.5685 -27.0224 35.0268 23.9892 -0.0 0.0 -0.0 4.18233 21.3377 8.49307 -20.8852 -14.3991 59.3546 1.16493 -29.9869 0.312008 -35.616 -2.49744 3.72835 -1.23615 6.11537 -5.53267 -0.0 0.0 -0.0 13.5302 26.3458 -26.8642 -8.32758 2.07819 -59.0484 0.914533 24.3718 -0.197497 79.3332 3.76188 8.57173 -8.15486 -29.2068 35.0501 0.0 0.0 0.0 -0.41448 45.1292 -4.55909 -13.1974 0.314651 1.99642 31.1383 -7.8924 -4.12877 -14.2545 0.0 0.0 -0.0 0.0 -0.0 9.18795 1.39445 3.94351 -11.0224 -0.294601 -1.66331 26.4175 32.8603 4.51139 -6.30493 0.0 0.0 0.0 0.0 0.0 
3548.57804149 739.74 -1471.50565813 -1.17871908059 52.7720894379 -0.606286438331 -0.608189 0.292935 0.895353 -0.607774 0.23537 0.912177 -0.603646 0.0284896 0.941621 -0.60484 0.176837 0.925306 -25.1215 20.8646 13.7158 -27.2922 34.5585 24.0899 -0.0 0.0 -0.0 4.14824 21.237 8.4442 -20.6165 -14.1144 58.9658 1.27943 -32.3647 0.371295 -35.6961 -2.50551 3.73473 -1.39779 5.96611 -6.66318 -0.0 0.0 -0.0 13.5975 26.2762 -27.0292 -8.6706 1.70579 -59.1682 0.826824 22.2731 -0.162767 78.6697 3.68604 8.53301 -8.07691 -28.734 35.0538 0.0 0.0 0.0 -0.537099 44.9903 -4.65056 -13.4039 0.315897 2.02807 32.0027 -7.99514 -4.22138 -14.3821 0.0 0.0 -0.0 0.0 -0.0 8.78772 2.11065 4.04548 -11.5975 -0.301133 -1.75132 26.7609 33.1348 4.57705 -6.05919 0.0 0.0 0.0 0.0 0.0 
3536.76423717 731.744 -1493.71157858 1.03846461585 42.2659831628 -1.9772516817 -0.623761 0.149629 0.740578 -0.623462 0.102202 0.748598 -0.6219 -0.0655922 0.75269 -0.622686 0.0541008 0.753602 -25.752 20.8064 14.1151 -27.9647 34.4087 24.6773 -0.0 0.0 -0.0 3.42169 19.1594 7.35525 -19.3124 -14.4043 57.2919 1.75236 -40.9566 0.65447 -36.5155 -2.58844 3.79934 -2.24613 6.36556 -12.0976 -0.0 0.0 -0.0 13.6902 26.1549 -27.2601 -9.71617 0.706722 -58.4119 0.461969 12.8902 -0.0521865 74.8393 3.25737 8.29251 -7.3352 -24.5168 34.362 0.0 0.0 0.0 -2.3985 43.5414 -5.81741 -16.5901 0.320652 2.51685 34.453 -8.03665 -4.47082 -16.0415 0.0 0.0 -0.0 0.0 -0.0 7.37851 7.68214 3.13744 -14.6536 -0.321002 -2.21975 30.7304 32.6775 5.07406 -3.93904 0.0 0.0 0.0 0.0 0.0 
3482.99872836 731.297 -1538.3584849 1.69640440998 53.2577545886 -2.16579014589 -0.442985 0.463308 0.828229 -0.442697 0.409668 0.85603 -0.436209 0.213604 0.924651 -0.437225 0.356949 0.879318 -28.3414 19.2011 11.23 -30.9139 32.7512 22.2296 -0.0 0.0 -0.0 2.58153 23.7199 6.26354 -18.0243 -8.75629 59.5535 2.42135 -50.1743 1.13371 -42.4606 -3.21657 4.23173 -2.01857 1.01072 -13.1346 -0.0 0.0 -0.0 12.5686 24.4293 -24.8557 -6.89198 13.3799 -65.2297 0.318581 8.9684 -0.0249846 70.4347 2.7856 7.9814 -3.44182 -25.1294 9.48401 0.0 0.0 0.0 7.24759 31.3035 -15.3325 -37.9859 -0.343627 5.71424 23.7624 21.6675 -3.29623 -20.4187 0.0 0.0 -0.0 0.0 -0.0 3.50464 -1.19519 2.49837 -17.154 -0.318663 -2.60334 36.7834 34.0777 5.90022 -27.1087 0.0 0.0 0.0 0.0 0.0 
3484.14822036 731.297 -1539.9790521 1.6570799414 52.236147547 -2.1163876367 -0.442985 0.463308 0.828229 -0.442697 0.409668 0.85603 -0.436209 0.213604 0.924651 -0.437225 0.356949 0.879318 -28.3414 19.2011 11.23 -30.9139 32.7512 22.2296 -0.0 0.0 -0.0 2.58153 23.7199 6.26354 -18.0243 -8.75629 59.5535 2.42135 -50.1743 1.13371 -42.4606 -3.21657 4.23173 -2.01857 1.01072 -13.1346 -0.0 0.0 -0.0 12.5686 24.4293 -24.8557 -6.89198 13.3799 -65.2297 0.318581 8.9684 -0.0249846 70.4347 2.7856 7.9814 -3.44182 -25.1294 9.48401 0.0 0.0 0.0 7.24759 31.3035 -15.3325 -37.9859 -0.343627 5.71424 23.7624 21.6675 -3.29623 -20.4187 0.0 0.0 -0.0 0.0 -0.0 3.50464 -1.19519 2.49837 -17.154 -0.318663 -2.60334 36.7834 34.0777 5.90022 -27.1087 0.0 0.0 0.0 0.0 0.0 
3465.3948452 731.389 -1532.59247938 0.596171695624 60.625852568 -1.93407316992 -0.232204 0.645233 0.831347 -0.232014 0.591027 0.870717 -0.222649 0.391094 0.976982 -0.223573 0.540476 0.902964 -24.2037 20.2166 6.10159 -27.0988 36.279 16.8096 -0.0 0.0 -0.0 3.62829 23.1868 7.70045 -18.8221 -8.05322 60.1237 2.02475 -45.0807 0.840423 -44.2058 -3.40914 4.3461 -1.44414 0.784001 -9.33488 -0.0 0.0 -0.0 13.8295 25.4562 -27.6696 -4.71669 14.2929 -64.1027 0.189548 5.36428 -0.00887962 69.8489 2.72471 7.93734 -2.07146 -22.9669 2.79087 0.0 0.0 0.0 12.7925 28.9565 -17.45 -51.8882 -1.39056 7.57359 32.9455 27.7451 -4.51963 -18.6895 0.0 0.0 -0.0 0.0 -0.0 3.26468 0.917613 2.97886 -17.0513 -0.319089 -2.58758 37.0154 33.1314 5.84809 -30.8979 0.0 0.0 0.0 0.0 0.0 
